<?xml version="1.0" standalone="no"?>
<!DOCTYPE svg PUBLIC "-//W3C//DTD SVG 20010904//EN"
 "http://www.w3.org/TR/2001/REC-SVG-20010904/DTD/svg10.dtd">
<svg version="1.0" xmlns="http://www.w3.org/2000/svg"
 width="700.000000pt" height="700.000000pt" viewBox="0 0 700.000000 700.000000"
 preserveAspectRatio="xMidYMid meet">
<metadata>
Created by potrace 1.14, written by Peter Selinger 2001-2017
</metadata>
<g transform="translate(0.000000,700.000000) scale(0.100000,-0.100000)"
fill="#000000" stroke="none">
<path d="M10 6995 c0 -3 523 -528 1163 -1168 l1162 -1162 1165 0 1165 0 1
-1162 c0 -640 -1 -1163 -3 -1163 -2 0 -525 522 -1163 1160 -638 638 -1161
1159 -1161 1158 -1 -2 -3 -522 -4 -1155 0 -634 -3 -1155 -6 -1157 -2 -3 -528
518 -1167 1157 l-1162 1163 0 -2333 0 -2333 1164 0 c922 0 1165 3 1168 13 2 6
3 531 3 1165 l-1 1152 20 -19 c12 -11 536 -535 1166 -1165 l1145 -1146 1163 0
c639 0 1162 2 1162 5 0 3 -522 527 -1159 1164 -934 934 -1155 1160 -1138 1163
12 2 536 3 1165 2 l1142 0 0 1166 0 1165 -1167 1168 -1168 1167 -2327 0
c-1281 0 -2328 -2 -2328 -5z"/>
</g>
</svg>
